<svg width="32" height="32" viewBox="0 0 600 600" xmlns="http://www.w3.org/2000/svg">
    <rect width="600" height="600" rx="120" fill="#19144C"/>
    <g transform="matrix(1,0,0,1,291.2968,328.3406)">
        <path d="M0,14.184L-0.269,18.318L-0.309,18.993L-5.127,99.678C-5.176,99.67 -5.232,99.67 -5.281,99.662C-5.786,99.588 -6.282,99.507 -6.779,99.426C-7.275,99.344 -7.771,99.255 -8.26,99.157C-8.569,99.1 -8.878,99.035 -9.187,98.97C-9.48,98.913 -9.773,98.848 -10.058,98.783C-10.319,98.718 -10.579,98.661 -10.839,98.588C-12.345,98.221 -13.785,97.79 -15.136,97.277C-15.152,97.269 -15.169,97.269 -15.185,97.261C-18.676,96.293 -22.102,95.113 -25.471,93.721C-36.514,89.156 -46.441,82.508 -54.986,73.963C-72.173,56.785 -81.637,33.934 -81.637,9.635C-81.637,-14.664 -72.173,-37.506 -54.986,-54.693L-24.185,-85.494L-35.456,18.318L-36.172,24.616L0,14.184Z" fill="#0EAAFF"/>
    </g>
    <g transform="matrix(1,0,0,1,351.2712,249.9344)">
        <path d="M0,11.287L-22.533,19.311L-19.319,-8.024L-17.284,-5.989L-15.779,-4.492L0,11.287Z" fill="#0EAAFF"/>
    </g>
    <g transform="matrix(1,0,0,1,310.4121,274.7074)">
        <path d="M0,153.775L2.832,146.199L53.375,-1.174C54.246,-0.222 55.173,0.812 56.133,1.927C56.207,2 56.272,2.073 56.329,2.146C58.241,4.352 60.308,6.866 62.497,9.706C62.578,9.804 62.652,9.902 62.725,10.007C62.741,10.032 62.757,10.056 62.774,10.081C62.798,10.105 62.814,10.121 62.823,10.146C73.93,25.518 79.928,43.933 79.928,63.268C79.928,87.567 70.464,110.41 53.277,127.596C43.642,137.239 32.409,144.69 19.62,148.949C1.608,154.949 2.612,153.319 0,153.775C-0.354,154.118 0,153.775 0,153.775" fill="#0EAAFF"/>
    </g>
    <g transform="matrix(1,0,0,1,351.0515,364.4168)">
        <path d="M0,-89.223L-42.063,31.564L-46.922,45.544L-53.384,65.239L-53.595,65.239L-48.443,-7.676L-46.466,-38.436L-46.905,-38.314L-72.604,-30.892L-81.734,-28.264L-80.937,-35.27L-69.805,-135.705L-51.047,-154.462L-30.418,-133.834L-36.448,-78.099L-24.779,-81.655L0,-89.223Z" fill="#FB541F"/>
    </g>
</svg>
