<svg width="200" height="50" viewBox="0 0 2500 600" xmlns="http://www.w3.org/2000/svg">
    <g transform="matrix(4.166667,0,0,4.166667,0,0)">
        <!-- Icon -->
        <g transform="matrix(0.45,0,0,0.45,-60,10)">
            <g transform="matrix(1,0,0,1,291.2968,328.3406)">
                <path d="M0,14.184L-0.269,18.318L-0.309,18.993L-5.127,99.678C-5.176,99.67 -5.232,99.67 -5.281,99.662C-5.786,99.588 -6.282,99.507 -6.779,99.426C-7.275,99.344 -7.771,99.255 -8.26,99.157C-8.569,99.1 -8.878,99.035 -9.187,98.97C-9.48,98.913 -9.773,98.848 -10.058,98.783C-10.319,98.718 -10.579,98.661 -10.839,98.588C-12.345,98.221 -13.785,97.79 -15.136,97.277C-15.152,97.269 -15.169,97.269 -15.185,97.261C-18.676,96.293 -22.102,95.113 -25.471,93.721C-36.514,89.156 -46.441,82.508 -54.986,73.963C-72.173,56.785 -81.637,33.934 -81.637,9.635C-81.637,-14.664 -72.173,-37.506 -54.986,-54.693L-24.185,-85.494L-35.456,18.318L-36.172,24.616L0,14.184Z" fill="#0EAAFF"/>
            </g>
            <g transform="matrix(1,0,0,1,351.2712,249.9344)">
                <path d="M0,11.287L-22.533,19.311L-19.319,-8.024L-17.284,-5.989L-15.779,-4.492L0,11.287Z" fill="#0EAAFF"/>
            </g>
            <g transform="matrix(1,0,0,1,310.4121,274.7074)">
                <path d="M0,153.775L2.832,146.199L53.375,-1.174C54.246,-0.222 55.173,0.812 56.133,1.927C56.207,2 56.272,2.073 56.329,2.146C58.241,4.352 60.308,6.866 62.497,9.706C62.578,9.804 62.652,9.902 62.725,10.007C62.741,10.032 62.757,10.056 62.774,10.081C62.798,10.105 62.814,10.121 62.823,10.146C73.93,25.518 79.928,43.933 79.928,63.268C79.928,87.567 70.464,110.41 53.277,127.596C43.642,137.239 32.409,144.69 19.62,148.949C1.608,154.949 2.612,153.319 0,153.775C-0.354,154.118 0,153.775 0,153.775" fill="#0EAAFF"/>
            </g>
            <g transform="matrix(1,0,0,1,351.0515,364.4168)">
                <path d="M0,-89.223L-42.063,31.564L-46.922,45.544L-53.384,65.239L-53.595,65.239L-48.443,-7.676L-46.466,-38.436L-46.905,-38.314L-72.604,-30.892L-81.734,-28.264L-80.937,-35.27L-69.805,-135.705L-51.047,-154.462L-30.418,-133.834L-36.448,-78.099L-24.779,-81.655L0,-89.223Z" fill="#FB541F"/>
            </g>
        </g>
        <!-- Text "pureWatts" -->
        <g transform="matrix(1,0,0,1,70.4993,543.7182)">
            <path d="M0,-59.159C3.293,-59.159 6.263,-58.402 8.828,-56.909C11.419,-55.4 13.417,-53.335 14.936,-50.596C16.45,-47.863 17.217,-44.565 17.217,-40.792C17.217,-37.084 16.445,-33.778 14.922,-30.965C13.399,-28.15 11.398,-26.031 8.806,-24.488C6.247,-22.967 3.284,-22.196 0,-22.196C-3.21,-22.196 -6.134,-22.968 -8.692,-24.49C-11.283,-26.03 -13.284,-28.148 -14.808,-30.965C-16.33,-33.776 -17.102,-37.082 -17.102,-40.792C-17.102,-44.491 -16.335,-47.75 -14.822,-50.48C-13.319,-53.191 -11.256,-55.34 -8.691,-56.865C-6.132,-58.387 -3.208,-59.159 0,-59.159M21.213,-62.562L21.213,-62.563C18.647,-65.298 15.607,-67.426 12.177,-68.886C8.761,-70.336 5.012,-71.072 1.035,-71.072C-3.088,-71.072 -6.946,-70.339 -10.43,-68.895C-13.006,-67.826 -15.362,-66.399 -17.45,-64.645C-17.494,-66.627 -18.018,-68.095 -19.049,-69.13C-20.126,-70.205 -21.682,-70.727 -23.806,-70.727C-25.087,-70.727 -26.143,-70.527 -27.035,-70.116C-28.23,-69.565 -29.106,-68.634 -29.569,-67.425C-29.892,-66.583 -30.05,-65.545 -30.05,-64.253L-30.05,5.554C-30.05,6.833 -29.849,7.89 -29.437,8.783C-28.918,9.91 -28.048,10.781 -26.921,11.302C-26.028,11.713 -24.971,11.913 -23.691,11.913C-22.414,11.913 -21.356,11.712 -20.456,11.299C-19.245,10.738 -18.362,9.765 -17.901,8.48C-17.595,7.616 -17.447,6.621 -17.447,5.439L-17.447,-16.737C-15.36,-14.962 -13.004,-13.526 -10.429,-12.459C-6.944,-11.015 -3.087,-10.283 1.035,-10.283C5.013,-10.283 8.762,-11.019 12.178,-12.47C15.6,-13.924 18.634,-16.026 21.196,-18.718C23.746,-21.394 25.767,-24.615 27.205,-28.291C28.635,-31.95 29.36,-36.04 29.36,-40.448C29.36,-44.922 28.637,-49.083 27.213,-52.814C25.779,-56.564 23.76,-59.844 21.213,-62.562" fill="white"/>
        </g>
        <g transform="matrix(1,0,0,1,157.1313,533.1284)">
            <path d="M0,-59.485C-0.876,-59.924 -1.903,-60.137 -3.14,-60.137C-4.35,-60.137 -5.349,-59.98 -6.195,-59.656C-7.461,-59.17 -8.422,-58.21 -8.901,-56.954C-9.226,-56.113 -9.384,-55.111 -9.384,-53.893L-9.384,-26.753C-9.384,-23.565 -10.008,-20.747 -11.24,-18.378C-12.444,-16.064 -14.104,-14.325 -16.313,-13.062C-18.539,-11.791 -21.304,-11.146 -24.531,-11.146C-27.642,-11.146 -30.22,-11.771 -32.19,-13.003C-34.155,-14.231 -35.593,-15.931 -36.587,-18.203C-37.646,-20.615 -38.182,-23.492 -38.182,-26.753L-38.182,-53.779C-38.182,-54.987 -38.34,-55.988 -38.666,-56.838C-39.132,-58.046 -40.008,-58.976 -41.2,-59.527C-42.094,-59.937 -43.149,-60.137 -44.426,-60.137C-45.558,-60.137 -46.52,-59.98 -47.368,-59.656C-48.65,-59.163 -49.585,-58.228 -50.073,-56.953C-50.398,-56.11 -50.555,-55.11 -50.555,-53.893L-50.555,-26.867C-50.555,-22.62 -49.912,-18.771 -48.641,-15.427C-47.354,-12.035 -45.512,-9.104 -43.168,-6.717C-40.824,-4.329 -38.053,-2.482 -34.932,-1.226C-31.836,0.02 -28.414,0.652 -24.761,0.652C-22.278,0.652 -19.953,0.342 -17.85,-0.27C-15.749,-0.883 -13.812,-1.753 -12.093,-2.854C-11.06,-3.517 -10.072,-4.239 -9.144,-5.01C-9.113,-4.372 -9.02,-3.797 -8.86,-3.264C-8.606,-2.417 -8.186,-1.695 -7.612,-1.12C-7.038,-0.546 -6.318,-0.126 -5.471,0.127C-4.812,0.326 -4.087,0.422 -3.256,0.422C-2.015,0.422 -1.01,0.255 -0.181,-0.089C0.991,-0.578 1.872,-1.46 2.367,-2.643C2.703,-3.459 2.874,-4.412 2.874,-5.477L2.874,-53.779C2.874,-54.983 2.716,-55.984 2.39,-56.843C1.934,-58.019 1.108,-58.932 0,-59.485" fill="white"/>
        </g>
        <g transform="matrix(1,0,0,1,204.9564,530.5546)">
            <path d="M0,-55.257C-0.786,-55.847 -1.738,-56.387 -2.829,-56.863C-3.884,-57.32 -5.029,-57.687 -6.232,-57.954C-7.468,-58.229 -8.822,-58.368 -10.255,-58.368C-12.936,-58.368 -15.14,-58.104 -16.993,-57.561C-18.894,-57.005 -20.542,-56.211 -21.889,-55.2C-22.208,-54.961 -22.518,-54.711 -22.815,-54.451C-22.846,-54.525 -22.877,-54.598 -22.91,-54.669C-23.491,-55.923 -24.487,-56.801 -25.794,-57.207C-26.581,-57.447 -27.479,-57.563 -28.541,-57.563C-29.706,-57.563 -30.648,-57.439 -31.423,-57.182C-32.711,-56.749 -33.692,-55.794 -34.186,-54.496C-34.511,-53.653 -34.669,-52.614 -34.669,-51.319L-34.669,-3.363C-34.669,-2.165 -34.52,-1.169 -34.214,-0.321C-33.772,0.925 -32.936,1.887 -31.792,2.462C-30.913,2.899 -29.887,3.111 -28.655,3.111C-27.369,3.111 -26.331,2.953 -25.479,2.628C-24.205,2.136 -23.271,1.2 -22.776,-0.081C-22.453,-0.925 -22.296,-1.924 -22.296,-3.133L-22.296,-36.714C-22.296,-38.455 -21.982,-39.935 -21.363,-41.114C-20.715,-42.351 -19.913,-43.352 -18.979,-44.089C-17.963,-44.888 -16.9,-45.491 -15.823,-45.881C-14.765,-46.262 -13.82,-46.456 -13.015,-46.456C-10.797,-46.456 -9.871,-46.256 -9.577,-46.17C-8.797,-45.942 -8.556,-45.752 -8.555,-45.751C-7.996,-45.286 -7.45,-44.883 -6.936,-44.557C-6.03,-43.977 -4.896,-43.695 -3.469,-43.695C-2.097,-43.695 -0.704,-44.265 0.675,-45.389C2.199,-46.639 3.004,-48.291 3.004,-50.169C3.004,-51.206 2.684,-52.214 2.054,-53.167C1.558,-53.909 0.886,-54.592 0,-55.257" fill="white"/>
        </g>
        <g transform="matrix(1,0,0,1,258.494,511.0918)">
            <path d="M0,-15.066C0,-14.685 -0.022,-14.406 -0.047,-14.206C-0.448,-14.131 -1.048,-14.065 -1.922,-14.065L-33.06,-14.065C-32.738,-15.749 -32.079,-17.284 -31.055,-18.739C-29.443,-21.029 -27.214,-22.854 -24.431,-24.164C-21.578,-25.507 -18.415,-26.188 -15.032,-26.188C-12.044,-26.188 -9.376,-25.629 -7.104,-24.525C-4.854,-23.431 -3.063,-22.004 -1.782,-20.287C-0.583,-18.675 0,-16.967 0,-15.066M3.996,-31.19C1.598,-33.245 -1.255,-34.891 -4.483,-36.081C-7.707,-37.269 -11.295,-37.87 -15.147,-37.87C-21.065,-37.87 -26.415,-36.567 -31.049,-33.997C-35.702,-31.415 -39.396,-27.869 -42.026,-23.456C-44.664,-19.031 -46.002,-14.003 -46.002,-8.511C-46.002,-3.945 -45.236,0.288 -43.724,4.07C-42.204,7.867 -40.039,11.208 -37.287,14.001C-34.521,16.811 -31.166,19.007 -27.315,20.529C-23.502,22.039 -19.252,22.804 -14.686,22.804C-10.586,22.804 -6.781,22.277 -3.374,21.24C0.062,20.194 2.747,19.029 4.83,17.681C6.853,16.376 8.922,14.731 8.922,12.42C8.922,11.545 8.786,10.725 8.514,9.978C8.271,9.32 7.904,8.647 7.408,7.943C6.683,6.811 5.511,6.125 4.105,6.011C3.178,5.938 2.29,6.062 1.548,6.36C0.756,6.656 -0.047,7.054 -0.911,7.581C-1.53,7.961 -2.23,8.346 -2.996,8.727C-3.721,9.091 -4.635,9.469 -5.712,9.851C-6.707,10.204 -7.946,10.486 -9.396,10.688C-10.904,10.899 -12.722,11.006 -14.802,11.006C-17.73,11.006 -20.699,10.306 -23.626,8.926C-26.511,7.567 -28.931,5.602 -30.818,3.084C-32.101,1.373 -32.871,-0.533 -33.165,-2.727L0.034,-2.727C3.138,-2.727 5.847,-3.61 8.086,-5.352C10.549,-7.265 11.797,-10.611 11.797,-15.296C11.797,-18.269 11.095,-21.183 9.708,-23.959C8.348,-26.674 6.426,-29.107 3.996,-31.19" fill="white"/>
        </g>
        <g transform="matrix(1,0,0,1,360.4804,531.7756)">
            <path d="M0,-57.661C-1.511,-58.104 -2.644,-58.132 -3.461,-57.748C-4.287,-57.36 -4.99,-56.395 -5.61,-54.796L-21.215,-13.528L-35.652,-54.872C-35.837,-55.513 -36.121,-56.051 -36.494,-56.473C-36.864,-56.888 -37.311,-57.218 -37.825,-57.453C-38.348,-57.689 -39.033,-57.803 -39.919,-57.803C-40.707,-57.803 -41.385,-57.688 -41.937,-57.459C-42.516,-57.218 -42.983,-56.848 -43.325,-56.36C-43.633,-55.92 -43.91,-55.369 -44.175,-54.665L-58.619,-13.876L-74.227,-55.034C-74.771,-56.484 -75.406,-57.337 -76.169,-57.643C-76.897,-57.934 -77.979,-57.862 -79.483,-57.42C-80.361,-57.156 -81.061,-56.792 -81.562,-56.336C-82.112,-55.835 -82.416,-55.243 -82.467,-54.579C-82.516,-53.971 -82.368,-53.206 -82.01,-52.227L-62.633,-2.482C-62.457,-1.773 -62.235,-1.224 -61.954,-0.803C-61.648,-0.344 -61.211,-0.007 -60.653,0.198C-60.155,0.379 -59.504,0.471 -58.72,0.471C-58.017,0.471 -57.407,0.379 -56.903,0.196C-56.345,-0.01 -55.886,-0.389 -55.539,-0.933C-55.239,-1.404 -54.959,-1.984 -54.702,-2.671L-39.919,-45.404L-25.13,-2.657C-24.871,-1.965 -24.599,-1.401 -24.298,-0.932C-23.951,-0.388 -23.491,-0.008 -22.931,0.198C-22.432,0.379 -21.822,0.471 -21.118,0.471C-20.415,0.471 -19.806,0.379 -19.301,0.197C-18.761,-0.003 -18.313,-0.327 -17.968,-0.77C-17.645,-1.185 -17.391,-1.713 -17.227,-2.291L2.174,-52.228C2.796,-53.835 2.908,-55.022 2.516,-55.857C2.124,-56.688 1.277,-57.295 0,-57.661" fill="white"/>
        </g>
        <g transform="matrix(1,0,0,1,417.8251,503.7692)">
            <path d="M0,-0.121C0,4.072 -0.903,7.847 -2.684,11.098C-4.466,14.351 -6.897,16.959 -9.91,18.851C-12.912,20.739 -16.314,21.696 -20.02,21.696C-24.29,21.696 -28.102,20.754 -31.351,18.897C-34.594,17.045 -37.139,14.461 -38.915,11.219C-40.696,7.968 -41.598,4.233 -41.598,0.119C-41.598,-4.154 -40.695,-7.991 -38.914,-11.283C-37.135,-14.569 -34.625,-17.216 -31.456,-19.148C-28.288,-21.079 -24.521,-22.057 -20.261,-22.057C-16.633,-22.057 -13.247,-21.138 -10.197,-19.325C-7.143,-17.507 -4.654,-14.938 -2.799,-11.69C-0.942,-8.441 0,-4.549 0,-0.121M6.574,-28.688L6.573,-28.689C6.042,-29.027 5.313,-29.198 4.409,-29.198C2.948,-29.198 1.888,-28.78 1.257,-27.955C0.653,-27.166 0.36,-25.935 0.36,-24.191L0.36,-19.031C-1.066,-20.762 -2.617,-22.32 -4.266,-23.678C-6.342,-25.388 -8.777,-26.751 -11.503,-27.727C-14.23,-28.704 -17.539,-29.198 -21.338,-29.198C-25.234,-29.198 -28.919,-28.436 -32.291,-26.933C-35.653,-25.434 -38.654,-23.337 -41.213,-20.701C-43.77,-18.059 -45.784,-14.976 -47.199,-11.537C-48.618,-8.09 -49.338,-4.329 -49.338,-0.36C-49.338,3.768 -48.618,7.647 -47.201,11.171C-45.786,14.693 -43.793,17.836 -41.278,20.513C-38.763,23.192 -35.779,25.311 -32.41,26.812C-29.036,28.315 -25.311,29.077 -21.338,29.077C-17.044,29.077 -13.316,28.353 -10.257,26.927C-7.218,25.511 -4.705,23.82 -2.787,21.902C-1.521,20.636 -0.468,19.435 0.36,18.315L0.363,24.488C0.535,26.139 0.893,27.261 1.456,27.918C2.048,28.607 3.001,28.956 4.289,28.956C5.186,28.956 5.896,28.82 6.464,28.537C7.082,28.227 7.522,27.691 7.769,26.946C7.988,26.29 8.099,25.443 8.099,24.428L8.099,-24.191C8.099,-25.376 7.993,-26.294 7.773,-26.997C7.533,-27.765 7.131,-28.333 6.574,-28.688" fill="white"/>
        </g>
        <g transform="matrix(1,0,0,1,467.7238,511.4317)">
            <path d="M0,-34.966L-0.004,-34.967C-0.6,-35.194 -1.352,-35.304 -2.314,-35.304L-14.781,-35.125L-14.781,-52.451C-14.781,-53.429 -14.919,-54.18 -15.201,-54.745C-15.505,-55.353 -15.992,-55.789 -16.65,-56.043C-17.236,-56.267 -18.01,-56.381 -18.95,-56.381C-19.848,-56.381 -20.559,-56.243 -21.124,-55.961C-21.736,-55.655 -22.173,-55.168 -22.423,-54.513C-22.651,-53.921 -22.761,-53.129 -22.761,-52.091L-22.761,-35.151L-29.608,-35.304C-31.042,-35.304 -32.066,-35.024 -32.738,-34.447C-33.429,-33.856 -33.778,-32.862 -33.778,-31.494C-33.778,-30.053 -33.493,-29.044 -32.907,-28.409C-32.309,-27.76 -31.309,-27.445 -29.835,-27.445L-22.761,-27.6L-22.761,2.995C-22.761,6.386 -22.432,9.278 -21.781,11.592C-21.116,13.967 -19.97,15.892 -18.378,17.316C-16.803,18.728 -14.728,19.779 -12.211,20.438C-9.735,21.086 -6.645,21.415 -3.025,21.415C-2.084,21.415 -1.31,21.302 -0.72,21.076C-0.066,20.823 0.42,20.387 0.725,19.779C1.008,19.214 1.146,18.464 1.146,17.485C1.146,16.506 1.008,15.755 0.725,15.191C0.42,14.582 -0.066,14.146 -0.722,13.892C-1.318,13.665 -2.11,13.554 -3.144,13.554C-5.355,13.554 -7.264,13.455 -8.82,13.26C-10.303,13.076 -11.476,12.653 -12.308,12.001C-13.128,11.359 -13.747,10.348 -14.147,8.997C-14.568,7.582 -14.781,5.643 -14.781,3.233L-14.781,-27.625L-2.066,-27.445C-1.099,-27.445 -0.36,-27.557 0.189,-27.787C0.816,-28.046 1.266,-28.518 1.527,-29.192C1.751,-29.778 1.864,-30.553 1.864,-31.494C1.864,-32.38 1.723,-33.111 1.443,-33.668C1.14,-34.276 0.654,-34.712 0,-34.966" fill="white"/>
        </g>
        <g transform="matrix(1,0,0,1,507.4839,511.4317)">
            <path d="M0,-34.966L-0.004,-34.967C-0.598,-35.194 -1.352,-35.304 -2.314,-35.304L-14.781,-35.125L-14.781,-52.451C-14.781,-53.429 -14.918,-54.179 -15.201,-54.745C-15.505,-55.353 -15.992,-55.789 -16.65,-56.043C-17.244,-56.27 -17.998,-56.381 -18.95,-56.381C-19.848,-56.381 -20.559,-56.243 -21.124,-55.961C-21.736,-55.655 -22.173,-55.168 -22.423,-54.514C-22.65,-53.922 -22.761,-53.13 -22.761,-52.091L-22.761,-35.151L-29.608,-35.304C-31.042,-35.304 -32.066,-35.024 -32.738,-34.447C-33.429,-33.856 -33.778,-32.862 -33.778,-31.494C-33.778,-30.053 -33.493,-29.044 -32.907,-28.409C-32.309,-27.76 -31.309,-27.445 -29.835,-27.445L-22.761,-27.6L-22.761,2.995C-22.761,6.386 -22.432,9.278 -21.781,11.593C-21.115,13.967 -19.969,15.892 -18.378,17.316C-16.803,18.728 -14.728,19.779 -12.211,20.438C-9.735,21.086 -6.645,21.415 -3.024,21.415C-2.071,21.415 -1.318,21.305 -0.719,21.076C-0.065,20.822 0.421,20.386 0.725,19.779C1.008,19.214 1.146,18.464 1.146,17.485C1.146,16.506 1.008,15.755 0.725,15.191C0.421,14.583 -0.065,14.147 -0.722,13.892C-1.318,13.665 -2.11,13.554 -3.143,13.554C-5.355,13.554 -7.264,13.455 -8.82,13.26C-10.302,13.076 -11.475,12.653 -12.308,12.001C-13.127,11.36 -13.746,10.349 -14.147,8.997C-14.568,7.582 -14.781,5.643 -14.781,3.233L-14.781,-27.625L-2.066,-27.445C-1.099,-27.445 -0.36,-27.557 0.19,-27.787C0.818,-28.047 1.267,-28.519 1.527,-29.192C1.754,-29.785 1.865,-30.538 1.865,-31.494C1.865,-32.378 1.723,-33.109 1.444,-33.669C1.14,-34.276 0.654,-34.713 0,-34.966" fill="white"/>
        </g>
        <g transform="matrix(1,0,0,1,557.5434,499.0502)">
            <path d="M0,9.676C-1.322,7.615 -3.056,5.922 -5.156,4.645C-7.222,3.39 -9.542,2.363 -12.053,1.592C-14.492,0.845 -16.956,0.138 -19.368,-0.507C-21.045,-0.986 -22.651,-1.468 -24.143,-1.939C-25.619,-2.405 -26.911,-2.953 -27.983,-3.567C-29.027,-4.162 -29.874,-4.894 -30.5,-5.744C-31.1,-6.555 -31.404,-7.588 -31.404,-8.814C-31.404,-10.52 -30.937,-12.039 -30.015,-13.329C-29.085,-14.629 -27.738,-15.651 -26.013,-16.364C-24.255,-17.09 -22.233,-17.459 -20.005,-17.459C-18.472,-17.459 -16.972,-17.264 -15.547,-16.88C-14.116,-16.492 -12.707,-15.924 -11.36,-15.193C-10.019,-14.464 -8.714,-13.469 -7.48,-12.239C-6.471,-11.227 -5.46,-10.794 -4.471,-10.938C-3.54,-11.078 -2.659,-11.604 -1.831,-12.525C-1.099,-13.443 -0.775,-14.351 -0.871,-15.225C-0.969,-16.094 -1.538,-16.996 -2.593,-17.964C-3.658,-19.028 -4.843,-19.962 -6.113,-20.742C-7.377,-21.515 -8.736,-22.194 -10.152,-22.761C-11.58,-23.332 -13.129,-23.766 -14.757,-24.051C-16.384,-24.335 -18.15,-24.479 -20.005,-24.479C-23.742,-24.479 -27.086,-23.817 -29.946,-22.511C-32.82,-21.197 -35.095,-19.359 -36.705,-17.047C-38.324,-14.722 -39.144,-11.952 -39.144,-8.814C-39.144,-6.079 -38.569,-3.799 -37.436,-2.035C-36.31,-0.286 -34.815,1.146 -32.994,2.221C-31.203,3.279 -29.166,4.164 -26.942,4.85C-24.731,5.534 -22.485,6.161 -20.273,6.713C-18.763,7.112 -17.258,7.534 -15.799,7.965C-14.358,8.395 -13.017,8.908 -11.815,9.488C-10.628,10.063 -9.56,10.742 -8.639,11.507C-7.752,12.248 -7.036,13.171 -6.514,14.249C-5.996,15.324 -5.733,16.59 -5.733,18.01C-5.733,20.777 -6.977,22.91 -9.536,24.529C-12.141,26.178 -15.623,27.014 -19.886,27.014C-20.964,27.014 -22.137,26.896 -23.372,26.665C-24.611,26.432 -25.868,26.079 -27.108,25.615C-28.345,25.151 -29.522,24.583 -30.604,23.924C-31.665,23.282 -32.548,22.573 -33.238,21.808C-34.61,20.349 -35.729,19.55 -36.659,19.361C-37.652,19.161 -38.665,19.611 -39.671,20.69C-40.29,21.145 -40.723,21.66 -40.956,22.219C-41.218,22.846 -41.197,23.521 -40.893,24.224C-40.639,24.82 -40.217,25.54 -39.62,26.39C-38.707,27.553 -37.491,28.625 -36.005,29.573C-34.536,30.512 -32.911,31.335 -31.175,32.019C-29.425,32.71 -27.578,33.244 -25.683,33.606C-23.785,33.97 -21.875,34.155 -20.005,34.155C-13.687,34.155 -8.397,32.669 -4.282,29.737C-0.109,26.76 2.007,22.735 2.007,17.771C2.007,14.484 1.332,11.76 0,9.676" fill="white"/>
        </g>
    </g>
</svg>
